<?xml version="1.0" encoding="utf-8"?>
<!-- Generator: Adobe Illustrator 21.0.0, SVG Export Plug-In . SVG Version: 6.00 Build 0)  -->
<!DOCTYPE svg PUBLIC "-//W3C//DTD SVG 1.1//EN" "http://www.w3.org/Graphics/SVG/1.1/DTD/svg11.dtd">
<svg version="1.1" id="Layer_1" xmlns="http://www.w3.org/2000/svg" xmlns:xlink="http://www.w3.org/1999/xlink" x="0px" y="0px"
	 width="135.5px" height="85.6px" viewBox="0 0 135.5 85.6" style="enable-background:new 0 0 135.5 85.6;" xml:space="preserve">
<style type="text/css">
	.st0{fill:#FFFFFF;}
</style>
<g>
	<polygon class="st0" points="14.7,58.9 5.6,70.5 5.5,70.5 5.5,58.9 0,58.9 0,85.2 5.5,85.2 5.5,72.1 5.6,72 15.3,85.2 22.4,85.2 
		11.7,71.1 21.6,58.9 	"/>
	<g>
		<path class="st0" d="M35.5,83.5c-1.4,1.2-3.1,2.1-5.4,2.1c-2.1,0-3.6-0.7-4.6-1.8c-1.2-1.2-1.7-2.8-1.7-5.5v-11h5.5v10.2
			c0,1.3,0.2,2.1,0.7,2.6c0.5,0.5,1.2,0.8,2,0.8c1.4,0,2.8-0.8,3.6-1.6v-12H41v17.9h-5.4L35.5,83.5L35.5,83.5z"/>
		<path class="st0" d="M44.4,79.2c2.5,1.5,5.3,2.1,7,2.1c1.5,0,2.4-0.4,2.4-1.4c0-1.4-2-1.2-4.7-1.9c-3.4-0.8-5.4-2.3-5.4-5.2
			c0-3.8,3.4-5.9,7.8-5.9c2.1,0,4.8,0.4,6.8,1.4v4.8c-2.4-1.3-5.1-1.9-6.7-1.9c-1.4,0-2.3,0.4-2.3,1.3c0,1.3,1.9,1.2,4.6,1.9
			c3.4,0.8,5.5,2.1,5.5,5.2c0,3.9-3.4,6.1-8,6.1c-2.1,0-4.9-0.4-7-1.5V79.2z"/>
		<path class="st0" d="M62.1,58.8h5.5v10l0.1,0c1.3-1.1,3.2-2,5.4-2c1.9,0,3.5,0.7,4.7,1.8c1.1,1.2,1.6,2.7,1.6,5.3v11.2h-5.5V74.9
			c0-1.3-0.2-2-0.6-2.5c-0.5-0.5-1.1-0.8-1.9-0.8c-1.4,0-2.8,0.7-3.7,1.5v12h-5.5V58.8z"/>
		<path class="st0" d="M83.1,67.3h5.4v1.6l0.1,0c1.4-1.1,3.3-2.1,5.5-2.1c1.9,0,3.5,0.7,4.7,1.8c1.1,1.2,1.6,2.7,1.6,5.3v11.2h-5.5
			V74.9c0-1.3-0.2-2-0.6-2.5c-0.5-0.5-1.1-0.8-1.9-0.8c-1.4,0-2.8,0.7-3.7,1.5v12h-5.5V67.3z"/>
		<path class="st0" d="M115.7,74.2c-0.3-1.9-1.7-3.1-3.5-3.1c-1.7,0-3.2,1.1-3.7,3.1H115.7z M108.6,77.7c0.6,2.5,2.6,3.6,5.2,3.6
			c2,0,4.2-0.7,6-2v4.6c-1.7,1.1-4.4,1.6-6.8,1.6c-5.9,0-10.1-3.7-10.1-9.3c0-5.7,4.4-9.4,9.3-9.4c4.4,0,8.5,2.9,8.5,8.9
			c0,0.6,0,1.4-0.1,1.9H108.6z"/>
		<path class="st0" d="M123.7,67.3h5.4v2.4l0.1,0c1.2-1.7,3-2.7,5.2-2.7c0.4,0,0.8,0,1.2,0.1v5.2c-0.4-0.1-1-0.2-1.5-0.2
			c-1.9,0-3.5,0.6-4.8,2.1v10.8h-5.5V67.3z"/>
	</g>
	<polygon class="st0" points="0,0 0,41 11,41 11,35.5 5.5,35.5 5.5,5.5 11,5.5 11,0 	"/>
	<polygon class="st0" points="30,0 30,5.5 35.5,5.5 35.5,35.5 30,35.5 30,41 41,41 41,0 	"/>
</g>
</svg>
